{
    "asset": {
        "version": "2.0",
        "generator": "Open Asset Import Library (assimp v5.0.5eb040c7)"
    },
    "accessors": [
        {
            "bufferView": 0,
            "byteOffset": 0,
            "componentType": 5126,
            "count": 2992,
            "type": "VEC3",
            "max": [
                24.713712692260743,
                11.300551414489746,
                0.9458019733428955
            ],
            "min": [
                15.38601016998291,
                9.757426261901856,
                -0.1166979968547821
            ]
        },
        {
            "bufferView": 1,
            "byteOffset": 0,
            "componentType": 5126,
            "count": 2992,
            "type": "VEC3",
            "max": [
                1.0,
                1.0,
                1.0
            ],
            "min": [
                -1.0,
                -1.0,
                -1.0
            ]
        },
        {
            "bufferView": 2,
            "byteOffset": 0,
            "componentType": 5126,
            "count": 2992,
            "type": "VEC2",
            "max": [
                0.9980080127716065,
                0.9980220198631287
            ],
            "min": [
                0.0019920000340789558,
                0.009001016616821289
            ]
        },
        {
            "bufferView": 3,
            "byteOffset": 0,
            "componentType": 5125,
            "count": 10380,
            "type": "SCALAR",
            "max": [
                2991
            ],
            "min": [
                0
            ]
        }
    ],
    "buffers": [
        {
            "byteLength": 137264,
            "uri": "result.bin"
        }
    ],
    "bufferViews": [
        {
            "buffer": 0,
            "byteOffset": 0,
            "byteLength": 35904,
            "target": 34962
        },
        {
            "buffer": 0,
            "byteOffset": 35904,
            "byteLength": 35904,
            "target": 34962
        },
        {
            "buffer": 0,
            "byteOffset": 71808,
            "byteLength": 23936,
            "target": 34962
        },
        {
            "buffer": 0,
            "byteOffset": 95744,
            "byteLength": 41520,
            "target": 34963
        }
    ],
    "materials": [
        {
            "name": "DefaultMaterial",
            "pbrMetallicRoughness": {
                "baseColorFactor": [
                    0.6000000238418579,
                    0.6000000238418579,
                    0.6000000238418579,
                    1.0
                ],
                "metallicFactor": 0.0
            }
        },
        {
            "name": "typeStandardSurface2SG",
            "pbrMetallicRoughness": {
                "baseColorFactor": [
                    0.6000000238418579,
                    0.6000000238418579,
                    0.6000000238418579,
                    1.0
                ],
                "metallicFactor": 0.0
            }
        }
    ],
    "meshes": [
        {
            "name": "typeMesh3",
            "primitives": [
                {
                    "mode": 4,
                    "material": 1,
                    "indices": 3,
                    "attributes": {
                        "POSITION": 0,
                        "NORMAL": 1,
                        "TEXCOORD_0": 2
                    }
                }
            ]
        }
    ],
    "nodes": [
        {
            "name": "input.obj",
            "children": [
                1,
                2
            ]
        },
        {
            "name": "default"
        },
        {
            "name": "typeMesh3",
            "mesh": 0
        }
    ],
    "scenes": [
        {
            "nodes": [
                0
            ]
        }
    ],
    "scene": 0
}