{"accessors" : [{"bufferView" : 0, "byteOffset" : 0, "componentType" : 5123, "count" : 13548, "type" : "SCALAR", "max" : [12167], "min" : [0]}, {"bufferView" : 1, "byteOffset" : 0, "componentType" : 5126, "count" : 12168, "type" : "VEC3", "max" : [17.462379455566406, 24.65060043334961, 0.9853309988975525], "min" : [8.563916206359863, 23.057443618774414, -0.07716900110244751], "name" : "POSITION"}, {"bufferView" : 1, "byteOffset" : 12, "componentType" : 5126, "count" : 12168, "type" : "VEC2", "max" : [0.9378839731216431, 0.9980080127716064], "min" : [0.0018720000516623259, 0.0019919872283935547], "name" : "TEXCOORD_0"}, {"bufferView" : 1, "byteOffset" : 20, "componentType" : 5126, "count" : 12168, "type" : "VEC3", "max" : [1.0000044107437134, 1.0000044107437134, 1.0000044107437134], "min" : [-1.0000044107437134, -1.0000044107437134, -1.0000044107437134], "name" : "NORMAL"}], "asset" : {"generator" : "Aspose.3D 24.1.0", "version" : "2.0"}, "buffers" : [{"uri" : "data:application/octet-stream;base64,", "byteLength" : 460640}], "bufferViews" : [{"buffer" : 0, "byteOffset" : 0, "byteLength" : 27096, "target" : 34963}, {"buffer" : 0, "byteOffset" : 27100, "byteLength" : 433536, "byteStride" : 32, "target" : 34962}], "meshes" : [{"primitives" : [{"attributes" : {"POSITION" : 1, "TEXCOORD_0" : 2, "NORMAL" : 3}, "indices" : 0, "mode" : 4}], "name" : ""}], "nodes" : [{"mesh" : 0, "name" : "typeMesh7"}], "scene" : 0, "scenes" : [{"nodes" : [0]}]}