{
    "asset": {
        "version": "2.0",
        "generator": "Open Asset Import Library (assimp v5.0.5eb040c7)"
    },
    "accessors": [
        {
            "bufferView": 0,
            "byteOffset": 0,
            "componentType": 5126,
            "count": 4173,
            "type": "VEC3",
            "max": [
                30.08894157409668,
                24.487693786621095,
                0.6359419822692871
            ],
            "min": [
                22.044113159179689,
                22.875181198120118,
                -0.4265579879283905
            ]
        },
        {
            "bufferView": 1,
            "byteOffset": 0,
            "componentType": 5126,
            "count": 4173,
            "type": "VEC3",
            "max": [
                1.0,
                1.0,
                1.0
            ],
            "min": [
                -1.0,
                -1.0,
                -1.0
            ]
        },
        {
            "bufferView": 2,
            "byteOffset": 0,
            "componentType": 5126,
            "count": 4173,
            "type": "VEC2",
            "max": [
                0.8673490285873413,
                0.9980080127716065
            ],
            "min": [
                0.0017310000257566572,
                0.0019919872283935549
            ]
        },
        {
            "bufferView": 3,
            "byteOffset": 0,
            "componentType": 5125,
            "count": 15162,
            "type": "SCALAR",
            "max": [
                4172
            ],
            "min": [
                0
            ]
        }
    ],
    "buffers": [
        {
            "byteLength": 194184,
            "uri": "result.bin"
        }
    ],
    "bufferViews": [
        {
            "buffer": 0,
            "byteOffset": 0,
            "byteLength": 50076,
            "target": 34962
        },
        {
            "buffer": 0,
            "byteOffset": 50076,
            "byteLength": 50076,
            "target": 34962
        },
        {
            "buffer": 0,
            "byteOffset": 100152,
            "byteLength": 33384,
            "target": 34962
        },
        {
            "buffer": 0,
            "byteOffset": 133536,
            "byteLength": 60648,
            "target": 34963
        }
    ],
    "materials": [
        {
            "name": "DefaultMaterial",
            "pbrMetallicRoughness": {
                "baseColorFactor": [
                    0.6000000238418579,
                    0.6000000238418579,
                    0.6000000238418579,
                    1.0
                ],
                "metallicFactor": 0.0
            }
        },
        {
            "name": "typeStandardSurface7SG",
            "pbrMetallicRoughness": {
                "baseColorFactor": [
                    0.6000000238418579,
                    0.6000000238418579,
                    0.6000000238418579,
                    1.0
                ],
                "metallicFactor": 0.0
            }
        }
    ],
    "meshes": [
        {
            "name": "typeMesh8",
            "primitives": [
                {
                    "mode": 4,
                    "material": 1,
                    "indices": 3,
                    "attributes": {
                        "POSITION": 0,
                        "NORMAL": 1,
                        "TEXCOORD_0": 2
                    }
                }
            ]
        }
    ],
    "nodes": [
        {
            "name": "input.obj",
            "children": [
                1,
                2
            ]
        },
        {
            "name": "default"
        },
        {
            "name": "typeMesh8",
            "mesh": 0
        }
    ],
    "scenes": [
        {
            "nodes": [
                0
            ]
        }
    ],
    "scene": 0
}