{
    "asset": {
        "version": "2.0",
        "generator": "Open Asset Import Library (assimp v5.0.5eb040c7)"
    },
    "accessors": [
        {
            "bufferView": 0,
            "byteOffset": 0,
            "componentType": 5126,
            "count": 3720,
            "type": "VEC3",
            "max": [
                4.114937782287598,
                24.71691131591797,
                1.057973027229309
            ],
            "min": [
                -3.745542049407959,
                23.123754501342775,
                -0.004526999779045582
            ]
        },
        {
            "bufferView": 1,
            "byteOffset": 0,
            "componentType": 5126,
            "count": 3720,
            "type": "VEC3",
            "max": [
                1.0,
                1.0,
                1.0
            ],
            "min": [
                -1.0,
                -1.0,
                -1.0
            ]
        },
        {
            "bufferView": 2,
            "byteOffset": 0,
            "componentType": 5126,
            "count": 3720,
            "type": "VEC2",
            "max": [
                0.9940659999847412,
                0.9980080127716065
            ],
            "min": [
                0.0019839999731630089,
                0.0019919872283935549
            ]
        },
        {
            "bufferView": 3,
            "byteOffset": 0,
            "componentType": 5125,
            "count": 13287,
            "type": "SCALAR",
            "max": [
                3719
            ],
            "min": [
                0
            ]
        }
    ],
    "buffers": [
        {
            "byteLength": 172188,
            "uri": "result.bin"
        }
    ],
    "bufferViews": [
        {
            "buffer": 0,
            "byteOffset": 0,
            "byteLength": 44640,
            "target": 34962
        },
        {
            "buffer": 0,
            "byteOffset": 44640,
            "byteLength": 44640,
            "target": 34962
        },
        {
            "buffer": 0,
            "byteOffset": 89280,
            "byteLength": 29760,
            "target": 34962
        },
        {
            "buffer": 0,
            "byteOffset": 119040,
            "byteLength": 53148,
            "target": 34963
        }
    ],
    "materials": [
        {
            "name": "DefaultMaterial",
            "pbrMetallicRoughness": {
                "baseColorFactor": [
                    0.6000000238418579,
                    0.6000000238418579,
                    0.6000000238418579,
                    1.0
                ],
                "metallicFactor": 0.0
            }
        },
        {
            "name": "typeStandardSurface5SG",
            "pbrMetallicRoughness": {
                "baseColorFactor": [
                    0.6000000238418579,
                    0.6000000238418579,
                    0.6000000238418579,
                    1.0
                ],
                "metallicFactor": 0.0
            }
        }
    ],
    "meshes": [
        {
            "name": "typeMesh6",
            "primitives": [
                {
                    "mode": 4,
                    "material": 1,
                    "indices": 3,
                    "attributes": {
                        "POSITION": 0,
                        "NORMAL": 1,
                        "TEXCOORD_0": 2
                    }
                }
            ]
        }
    ],
    "nodes": [
        {
            "name": "input.obj",
            "children": [
                1,
                2
            ]
        },
        {
            "name": "default"
        },
        {
            "name": "typeMesh6",
            "mesh": 0
        }
    ],
    "scenes": [
        {
            "nodes": [
                0
            ]
        }
    ],
    "scene": 0
}