{
    "asset": {
        "version": "2.0",
        "generator": "Open Asset Import Library (assimp v5.0.5eb040c7)"
    },
    "accessors": [
        {
            "bufferView": 0,
            "byteOffset": 0,
            "componentType": 5126,
            "count": 2057,
            "type": "VEC3",
            "max": [
                12.14376163482666,
                6.649822235107422,
                1.3045200109481812
            ],
            "min": [
                4.418406963348389,
                5.106698036193848,
                0.24201999604701997
            ]
        },
        {
            "bufferView": 1,
            "byteOffset": 0,
            "componentType": 5126,
            "count": 2057,
            "type": "VEC3",
            "max": [
                1.0,
                1.0,
                1.0
            ],
            "min": [
                -1.0,
                -1.0,
                -1.0
            ]
        },
        {
            "bufferView": 2,
            "byteOffset": 0,
            "componentType": 5126,
            "count": 2057,
            "type": "VEC2",
            "max": [
                0.9930790066719055,
                0.9980080127716065
            ],
            "min": [
                0.001981999957934022,
                0.0019919872283935549
            ]
        },
        {
            "bufferView": 3,
            "byteOffset": 0,
            "componentType": 5125,
            "count": 6927,
            "type": "SCALAR",
            "max": [
                2056
            ],
            "min": [
                0
            ]
        }
    ],
    "buffers": [
        {
            "byteLength": 93532,
            "uri": "result.bin"
        }
    ],
    "bufferViews": [
        {
            "buffer": 0,
            "byteOffset": 0,
            "byteLength": 24684,
            "target": 34962
        },
        {
            "buffer": 0,
            "byteOffset": 24684,
            "byteLength": 24684,
            "target": 34962
        },
        {
            "buffer": 0,
            "byteOffset": 49368,
            "byteLength": 16456,
            "target": 34962
        },
        {
            "buffer": 0,
            "byteOffset": 65824,
            "byteLength": 27708,
            "target": 34963
        }
    ],
    "materials": [
        {
            "name": "DefaultMaterial",
            "pbrMetallicRoughness": {
                "baseColorFactor": [
                    0.6000000238418579,
                    0.6000000238418579,
                    0.6000000238418579,
                    1.0
                ],
                "metallicFactor": 0.0
            }
        },
        {
            "name": "typeStandardSurface1SG",
            "pbrMetallicRoughness": {
                "baseColorFactor": [
                    0.6000000238418579,
                    0.6000000238418579,
                    0.6000000238418579,
                    1.0
                ],
                "metallicFactor": 0.0
            }
        }
    ],
    "meshes": [
        {
            "name": "typeMesh2",
            "primitives": [
                {
                    "mode": 4,
                    "material": 1,
                    "indices": 3,
                    "attributes": {
                        "POSITION": 0,
                        "NORMAL": 1,
                        "TEXCOORD_0": 2
                    }
                }
            ]
        }
    ],
    "nodes": [
        {
            "name": "input.obj",
            "children": [
                1,
                2
            ]
        },
        {
            "name": "default"
        },
        {
            "name": "typeMesh2",
            "mesh": 0
        }
    ],
    "scenes": [
        {
            "nodes": [
                0
            ]
        }
    ],
    "scene": 0
}