{
    "asset": {
        "version": "2.0",
        "generator": "Open Asset Import Library (assimp v5.0.5eb040c7)"
    },
    "accessors": [
        {
            "bufferView": 0,
            "byteOffset": 0,
            "componentType": 5126,
            "count": 17046,
            "type": "VEC3",
            "max": [
                5.692340850830078,
                21.389541625976564,
                0.8327320218086243
            ],
            "min": [
                -5.2872090339660648,
                17.23222541809082,
                0.08957400172948837
            ]
        },
        {
            "bufferView": 1,
            "byteOffset": 0,
            "componentType": 5126,
            "count": 17046,
            "type": "VEC3",
            "max": [
                0.9933881163597107,
                0.999829113483429,
                0.9999986290931702
            ],
            "min": [
                -0.9889193773269653,
                -0.998021125793457,
                -0.9999880194664002
            ]
        },
        {
            "bufferView": 2,
            "byteOffset": 0,
            "componentType": 5125,
            "count": 17046,
            "type": "SCALAR",
            "max": [
                17045
            ],
            "min": [
                0
            ]
        }
    ],
    "buffers": [
        {
            "byteLength": 477288,
            "uri": "result.bin"
        }
    ],
    "bufferViews": [
        {
            "buffer": 0,
            "byteOffset": 0,
            "byteLength": 204552,
            "target": 34962
        },
        {
            "buffer": 0,
            "byteOffset": 204552,
            "byteLength": 204552,
            "target": 34962
        },
        {
            "buffer": 0,
            "byteOffset": 409104,
            "byteLength": 68184,
            "target": 34963
        }
    ],
    "materials": [
        {
            "name": "DefaultMaterial",
            "pbrMetallicRoughness": {
                "baseColorFactor": [
                    0.6000000238418579,
                    0.6000000238418579,
                    0.6000000238418579,
                    1.0
                ],
                "metallicFactor": 0.0
            }
        },
        {
            "name": "initialShadingGroup",
            "pbrMetallicRoughness": {
                "baseColorFactor": [
                    0.6000000238418579,
                    0.6000000238418579,
                    0.6000000238418579,
                    1.0
                ],
                "metallicFactor": 0.0
            }
        }
    ],
    "meshes": [
        {
            "name": "Furcula_velo1:Group57800",
            "primitives": [
                {
                    "mode": 4,
                    "material": 1,
                    "indices": 2,
                    "attributes": {
                        "POSITION": 0,
                        "NORMAL": 1
                    }
                }
            ]
        }
    ],
    "nodes": [
        {
            "name": "input.obj",
            "children": [
                1,
                2
            ]
        },
        {
            "name": "default"
        },
        {
            "name": "Furcula_velo1:Group57800",
            "mesh": 0
        }
    ],
    "scenes": [
        {
            "nodes": [
                0
            ]
        }
    ],
    "scene": 0
}